# xmcd
#
# Track frame offsets:
#	150
#	23557
#	45832
#	70797
#	91067
#	118775
#	135170
#	155880
#	169422
#	184202
#	209712
#	227392
#	253110
#	271740
#	296700
#
# Disc length: 4422 seconds
#
# Revision: 0
# Processed by: cddbd v1.5.2PL0 Copyright (c) Steve Scherf et al.
# Submitted via: EasyCDDAExtractor 12.0.0.1
#
DISCID=ce11440f
DTITLE=Various Artist - Lady In Dreams vol. 3
DYEAR=1900
DGENRE=Ballad
TTITLE0=Joe Cocker - Let The Healing Begin
TTITLE1=Elton John - Believe
TTITLE2=George Michael - You Have Been Loved
TTITLE3=Chris Norman - Walkin' In The Rain
TTITLE4=Michael Bolton - Drift Away
TTITLE5=Mariah Carey - Without You
TTITLE6=Glenn Frey - The One You Love
TTITLE7=Engelbert Humperdinck - What Will I Write
TTITLE8=Julio Iglesias - And I Love Her
TTITLE9=Aaron Neville - I'll Love You Anyway
TTITLE10=Mike and The Mechanics - Stop Baby
TTITLE11=10cc - Code Of Silence
TTITLE12=Air Supply - Goodbye
TTITLE13=Frenkie Goes To Hollywood - The Power Of Love
TTITLE14=Barry White - Love Interlude (Good Night My Love)
EXTD=
EXTT0=
EXTT1=
EXTT2=
EXTT3=
EXTT4=
EXTT5=
EXTT6=
EXTT7=
EXTT8=
EXTT9=
EXTT10=
EXTT11=
EXTT12=
EXTT13=
EXTT14=
PLAYORDER=
